<?xml version="1.0" encoding="UTF-8"?>
<svg viewBox="0 0 249 393" xmlns="http://www.w3.org/2000/svg">
 <defs>
  <linearGradient id="a" y2="1">
   <stop stop-color="#ff0" offset="0"/>
   <stop stop-color="#f00" offset=".2408"/>
  </linearGradient>
 </defs>
 <g transform="matrix(.86845 0 0 1.0118 17.014 -1.5067)">
  <path d="m247.86 251.28a123.88 123.88 0 1 1 -247.75 0 123.88 123.88 0 1 1 247.75 0z" fill="#ff7f00" stroke="#000" stroke-linecap="round" stroke-linejoin="round" stroke-width="2.2041"/>
  <path transform="translate(-200.97 -237.53)" d="m433.96 429.69c3.215 11.019 4.927 22.681 4.927 34.735 0 68.387-55.492 123.88-123.88 123.88-47.017 0-87.956-26.239-108.94-64.858 15.085 51.409 62.622 88.987 118.89 88.987 68.388 0 123.88-55.492 123.88-123.88 0-21.297-5.396-41.354-14.874-58.864z" fill-opacity=".3137"/>
 </g>
 <path transform="translate(-200.97 -237.53)" d="m305.95 383.81c-9.4428-63.582 54.399-67.86 47.214-93.169-7.473-26.324-36.512-18.886-51.621-22.663s-12.879-17.734-3.7771-25.181c6.9248-5.6657 63.548-8.7293 76.802 32.735 18.437 57.679-45.326 52.88-45.326 107.02 0 46.024-22.033 1.2591-23.292 1.2591z" fill="#ff7f00" fill-rule="evenodd" stroke="#000" stroke-width="4"/>
 <path d="m158.18 15.535c3.32 4.1864 6.042 9.1378 7.906 14.969 18.436 57.679-45.313 52.892-45.313 107.03 0 18.697-3.66 22.401-8.062 20.219 6.791 9.204 15.562 16.331 15.562-12.719 0-54.139 63.749-49.352 45.313-107.03-3.13-9.7928-8.664-17.091-15.406-22.469zm-68.157 6.4062c1.1166 3.7755 4.3934 6.9656 10.532 8.5 10.768 2.6921 28.617-0.3007 40.687 7.2813-10.616-16.849-34.839-11.444-48.188-14.781-1.1119-0.278-2.103-0.6184-3.0312-1z" fill="url(#a)" fill-opacity=".31" fill-rule="evenodd"/>
 <path transform="translate(-200.97 -237.53)" d="m279.31 373.88c-14.361 5.8025-27.382 14.23-38.469 24.688 3.242 5.5182 7.4494 10.589 12.781 14.406-12.298 16.098-19.594 36.193-19.594 58-2e-5 52.819 42.868 95.688 95.688 95.688s95.688-42.868 95.688-95.688c0-21.6-7.1942-41.511-19.281-57.531 3.7231-2.5471 6.8881-5.6934 9.5938-9.1875-10.565-11.339-23.219-20.706-37.375-27.438-0.30414 0.36066-0.58954 0.72601-0.875 1.0938-2.157 2.7788-3.5536 5.3609-4.3438 7.7812-13.035-6.6551-27.776-10.406-43.406-10.406-15.285 0-29.742 3.5864-42.562 9.9688-0.81308-2.293-2.1619-4.7343-4.1875-7.3438-1.084-1.3965-2.3231-2.7404-3.6562-4.0312z" fill-opacity=".3137"/>
 <path transform="translate(-200.97 -237.53)" d="m233.72 341.74c-2.5647 0.05691-4.4598 0.58737-5.4062 1.6562-3.4874 3.9387-0.59007 39.934 21.062 55.438-12.298 16.098-19.594 36.193-19.594 58 0 52.819 42.868 95.688 95.688 95.688s95.688-42.868 95.688-95.688c0-21.6-7.1942-41.511-19.281-57.531 22.265-15.232 25.273-51.927 21.75-55.906-5.0474-5.7007-37.514 3.7668-50.406 20.375-2.157 2.7787-3.5536 5.3609-4.3438 7.7812-13.035-6.6551-27.776-10.406-43.406-10.406-15.285 0-29.742 3.5864-42.562 9.9688-0.81305-2.293-2.1619-4.7343-4.1875-7.3438-10.475-13.494-33.886-22.278-45-22.031z" fill="#ff7f00" stroke="#000" stroke-linecap="round" stroke-linejoin="round" stroke-width="4"/>
 <path transform="translate(-200.97 -237.53)" d="m413.66 419.75c1.2028 6.045 1.8438 12.289 1.8438 18.688 0 52.819-42.868 95.688-95.688 95.688-39.615 0-73.624-24.098-88.156-58.438 8.7715 43.79 47.453 76.844 93.812 76.844 52.819 0 95.688-42.868 95.688-95.688 0-13.154-2.6838-25.69-7.5-37.094z" fill-opacity=".3137"/>
 <path transform="matrix(.40278 0 0 .40278 -43.079 -4.6001)" d="m403.52 522.31a67.988 67.988 0 1 1 -135.98 0 67.988 67.988 0 1 1 135.98 0z" fill="#fff" stroke="#000" stroke-linecap="round" stroke-linejoin="round" stroke-width="9.931"/>
 <path transform="matrix(.40278 0 0 .40278 20.503 -4.6001)" d="m403.52 522.31a67.988 67.988 0 1 1 -135.98 0 67.988 67.988 0 1 1 135.98 0z" fill="#fff" stroke="#000" stroke-linecap="round" stroke-linejoin="round" stroke-width="9.931"/>
 <path transform="matrix(.125 0 0 .125 58.309 143.63)" d="m403.52 522.31a67.988 67.988 0 1 1 -135.98 0 67.988 67.988 0 1 1 135.98 0z"/>
 <path transform="matrix(.125 0 0 .125 104.89 143.63)" d="m403.52 522.31a67.988 67.988 0 1 1 -135.98 0 67.988 67.988 0 1 1 135.98 0z"/>
 <path transform="translate(-200.97 -237.53)" d="m341.53 498.13c0 8.8296-9.6697 15.996-16.067 15.996-6.8914 0-16.067-7.166-16.067-15.996s7.1979-11.074 16.067-11.074 16.067 2.2443 16.067 11.074z"/>
 <path transform="matrix(.93748 0 0 .93548 -189.5 -209.23)" d="m392.75 487.02a39.03 39.03 0 0 1 -57.216 43.903" fill="none" stroke="#000" stroke-linecap="round" stroke-linejoin="round" stroke-width="4.2713"/>
 <path transform="matrix(-.93748 0 0 .93548 438.48 -209.23)" d="m392.75 487.02a39.03 39.03 0 0 1 -57.216 43.903" fill="none" stroke="#000" stroke-linecap="round" stroke-linejoin="round" stroke-width="4.2713"/>
 <g transform="translate(-200.97 -248.23)" fill="none" stroke="#000" stroke-linecap="round" stroke-width="4">
  <path d="m365.35 505.67c44.674-16.608 66.504 3.8931 66.504 3.8931"/>
  <path d="m358.94 516.8c31.633-8.9582 52.351 13.887 52.351 13.887"/>
  <path d="m356.31 528.71c24.338-2.576 33.657 19.126 33.657 19.126"/>
 </g>
 <g transform="matrix(-1 0 0 1 450.58 -248.23)" fill="none" stroke="#000" stroke-linecap="round" stroke-width="4">
  <path d="m365.35 505.67c44.674-16.608 66.504 3.8931 66.504 3.8931"/>
  <path d="m358.94 516.8c31.633-8.9582 52.351 13.887 52.351 13.887"/>
  <path d="m356.31 528.71c24.338-2.576 33.657 19.126 33.657 19.126"/>
 </g>
 <path transform="translate(-200.97 -237.53)" d="m381.49 380.03c2.5181-19.515 31.476-32.735 35.253-29.588s-4.6694 33.403-20.774 40.919c-9.4428 4.4066-14.479-6.2952-14.479-11.331z" fill="#3a200f" fill-rule="evenodd" stroke="#000" stroke-linejoin="round" stroke-width="4"/>
 <path transform="translate(-200.97 -237.53)" d="m269.7 380.03c-2.5181-19.515-31.476-32.735-35.253-29.588s4.6694 33.403 20.774 40.919c9.4428 4.4066 14.479-6.2952 14.479-11.331z" fill="#44240f" fill-rule="evenodd" stroke="#000" stroke-linejoin="round" stroke-width="4"/>
 <path transform="translate(-200.97 -237.53)" d="m409.5 608.24c0 21.545-17.486 20.774-39.03 20.774s-39.03 0.7705-39.03-20.774 17.486-39.03 39.03-39.03 39.03 17.486 39.03 39.03z" fill="#ff7f00" stroke="#000" stroke-linecap="round" stroke-linejoin="round" stroke-width="4"/>
 <path transform="translate(-200.97 -237.53)" d="m319.48 608.24c0 21.545-17.486 20.774-39.03 20.774-11.98 0-22.705 0.23822-29.866-3.2543-5.7178-2.7884-9.1641-7.9551-9.1641-17.52 0-21.545 17.486-39.03 39.03-39.03s39.03 17.486 39.03 39.03z" fill="#ff7f00" stroke="#000" stroke-linecap="round" stroke-linejoin="round" stroke-width="4"/>
 <path transform="translate(-200.97 -237.53)" d="m390.97 575.03c4.7228 6.48 7.5312 14.467 7.5312 23.094 0 12.466-5.8351 23.559-14.906 30.75 15.081-0.57257 25.906-3.6937 25.906-20.625 0-14.032-7.4066-26.34-18.531-33.219z" fill-opacity=".3137"/>
 <path transform="translate(-200.97 -237.53)" d="m300.47 575.03c4.7228 6.48 7.5312 14.467 7.5312 23.094 0 12.466-5.8351 23.559-14.906 30.75 15.081-0.57257 25.906-3.6937 25.906-20.625 0-14.032-7.4066-26.34-18.531-33.219z" fill-opacity=".3137"/>
 <path transform="translate(-200.97 -237.53)" d="m336.66 588.75c-3.3125 5.7347-5.2188 12.406-5.2188 19.5 0 17.505 11.553 20.263 27.438 20.688-15.78-6.578-23.805-22.208-22.219-40.188z" fill-opacity=".3137"/>
 <g transform="matrix(-1 0 0 1 451.5 -239.35)" fill="none" stroke="#000" stroke-linecap="round" stroke-width="4">
  <path d="m357.34 628.69c-3.5026-11.331 0.50039-24.551 0.50039-24.551"/>
  <path d="m375.37 631.21c4.293-18.256-0.61331-32.735-0.61331-32.735"/>
  <path d="m393.62 629.32c8.8133-13.849 1.259-25.181 1.259-25.181"/>
 </g>
 <g transform="translate(-201.8 -239.35)" fill="none" stroke="#000" stroke-linecap="round" stroke-width="4">
  <path d="m357.34 628.69c-3.5026-11.331 0.50039-24.551 0.50039-24.551"/>
  <path d="m375.37 631.21c4.293-18.256-0.61331-32.735-0.61331-32.735"/>
  <path d="m393.62 629.32c8.8133-13.849 1.259-25.181 1.259-25.181"/>
 </g>
</svg>
