<?xml version="1.0" encoding="UTF-8"?>
<svg enable-background="new 0 0 217.444 144.397" viewBox="0 0 217.444 144.397" xmlns="http://www.w3.org/2000/svg">
 <path d="m129.154.019c-2.412.612-4.428,1.836-5.904,3.816s-2.555,4.536-3.096,7.956c-9.973,8.028-18.216,15.48-25.272,22.5-7.128,6.948-9.612,12.816-16.632,19.404-7.164,6.516-12.168,6.912-25.272,20.052-13.248,13.212-30.528,32.4-52.956,58.536l7.956,12.096c10.188-.359 25.02-1.332 45.324-2.771 20.34-1.512 49.068-3.78 75.492-6.229 26.387-2.592 52.992-5.544 81.359-9 1.08-1.008 2.232-2.34 3.457-4.14 1.188-1.908 2.412-3.924 3.814-6.588-1.08-6.588-2.627-12.708-4.5-19.044-2.051-6.372-4.355-12.96-6.912-18.36-2.592-5.436-5.363-8.604-8.314-13.824-3.096-5.328-4.176-10.62-10.045-17.676-6.084-7.236-15.875-17.064-25.631-24.912-9.899-7.884-20.627-15.012-32.868-21.816z" fill-rule="evenodd" stroke="#000" stroke-miterlimit="10" stroke-width=".036"/>
 <path d="m3.119,132.607c6.768.72 16.344.611 29.412-.324 13.104-1.116 34.38-4.68 48.132-5.544 13.536-.864 19.368.936 32.904.684 13.572-.396 33.084-1.296 47.412-2.411 14.148-1.08 26.064-2.521 36.721-4.177 1.404-4.176 3.492-6.66 6.551-7.596 2.988-.972 6.805-.288 11.449,2.052l-6.229,10.044c-5.473.685-15.443,1.836-30.492,3.456-15.156,1.512-38.447,4.032-59.184,5.904-20.772,1.764-45.756,3.384-64.404,4.86-18.684,1.331-33.984,2.483-46.728,3.456-1.836-3.455-3.672-6.911-5.544-10.404z" fill="#fff" fill-rule="evenodd" stroke="#000" stroke-miterlimit="10" stroke-width=".036"/>
 <path d="m2.794,130.879c5.112-4.859 10.764-10.8 17.64-18.359 6.84-7.668 15.012-18.54 22.86-26.641 7.668-8.172 16.884-16.56 23.184-21.816 6.12-5.292 9.972-5.832 14.184-9.684 4.068-3.996 7.812-9.468 11.088-13.5 3.348-4.068 3.888-5.724 9-10.404 5.148-4.716 11.916-10.548 21.132-17.64 2.375,2.556 5.904,5.688 10.729,9.684 4.859,3.888 12.527,8.784 18,13.86 5.363,5.148 9.719,11.592 14.184,16.272 4.355,4.428 9.467,6.012 12.131,10.728 2.592,4.788 1.152,12.708 3.457,17.64 2.305,4.823 7.92,7.271 10.043,11.088 2.018,3.744.9,6.516 2.053,11.088 1.008,4.536 2.447,9.504 4.176,15.588-12.023,1.8-24.875,3.348-39.131,4.5-14.438,1.152-33.156,2.088-46.045,2.412-12.888.107-19.152-1.584-30.456-1.044-11.52.576-24.264,3.42-37.404,4.5-13.14,1.044-26.604,1.62-40.825,1.728z" fill="#fff" fill-rule="evenodd" stroke="#000" stroke-miterlimit="10" stroke-width=".036"/>
 <path d="m130.883,2.431c-2.484-.288-4.5.504-5.904,2.088-1.439,1.656-2.412,4.104-2.771,7.632 3.059,2.196 6.588,4.896 10.727,7.956 4.068,3.06 9.758,6.84 13.861,10.368 3.924,3.456 7.199,6.876 10.404,10.404 3.131,3.42 5.436,6.876 9,10.368 3.6,3.312 9.791,5.544 12.455,10.044 2.52,4.5 1.729,12.78 2.771,16.632 .9,3.673 1.189,3.204 3.098,5.544 1.943,2.305 6.658,5.112 8.314,8.28 1.512,2.988-.252,5.868.686,10.044 .898,4.141 2.268,9.108 4.5,14.904 .143-3.78 1.691-5.977 4.5-6.588 2.844-.612 6.91.216 12.49,2.771-1.188-9.288-3.275-17.496-6.264-24.912-3.096-7.451-8.135-13.176-11.771-19.404-3.564-6.3-5.832-11.844-10.008-18-4.355-6.264-7.957-11.916-15.947-19.044-8.209-7.38-25.813-18.9-32.545-23.868-6.768-4.895-9.252-6.587-7.596-5.219z" fill="#fff" fill-rule="evenodd" stroke="#000" stroke-miterlimit="10" stroke-width=".036"/>
 <path d="m92.435,90.02c-1.8-2.628-2.376-5.364-1.728-8.641 .648-3.384 2.268-8.207 5.544-10.728 3.24-2.592 8.712-4.536 13.5-4.176 4.679.396 11.521,2.808 14.544,6.264 2.916,3.384 3.959,7.848 3.131,13.824-3.924-1.296-7.164-1.872-9.719-1.729-2.629.108-4.861.973-5.869,2.448-1.043,1.404-1.404,3.313-.684,5.868-4.068-2.196-7.056-3.168-9.36-2.772s-3.636,1.872-4.14,4.86c-1.728-1.726-3.455-3.455-5.219-5.218z" fill-rule="evenodd" stroke="#000" stroke-miterlimit="10" stroke-width=".036"/>
 <path d="m93.119,87.967c-1.116-2.447-1.44-4.896-.684-7.632 .684-2.808 1.8-6.66 4.86-8.64 2.952-2.052 8.424-3.96 12.817-3.492 4.355.396 10.26,3.06 13.139,5.904 2.736,2.808 3.889,6.336 3.457,10.728-1.836-1.296-4.068-2.124-6.553-2.088-2.699-.144-6.84.396-8.676,1.765-1.908,1.403-2.412,3.491-2.052,6.552-2.736-2.124-5.22-3.097-7.308-2.772-2.232.252-3.924,1.8-5.508,4.5-1.153-1.585-2.304-3.205-3.492-4.825z" fill="#fff" fill-rule="evenodd" stroke="#000" stroke-miterlimit="10" stroke-width=".036"/>
 <path d="m137.11 88.291c0.215 2.844 1.223 7.344 4.139 10.729 2.809 3.312 7.273 7.56 12.816 9 5.58 1.332 16.344 1.691 20.088-1.008 3.457-2.952 3.527-10.837 1.045-15.589-2.629-4.823-10.369-10.872-16.273-12.456-5.939-1.584-15.479 1.44-19.043 3.097-3.709 1.511-3.061 3.311-2.772 6.227z" fill-rule="evenodd" stroke="#000" stroke-miterlimit="10" stroke-width=".036"/>
 <path d="m138.3 88.363c0.18 2.808 1.152 6.768 3.889 10.08 2.699 3.06 6.768 7.128 12.059 8.46 5.184 1.224 15.408 1.548 18.865-0.972 3.348-2.809 3.311-10.152 1.008-14.652-2.557-4.572-9.756-10.152-15.336-11.736-5.652-1.476-14.438 1.404-17.893 2.952-3.385 1.332-2.952 3.24-2.592 5.868z" fill="#fff" fill-rule="evenodd" stroke="#000" stroke-miterlimit="10" stroke-width=".036"/>
 <path d="m37.066,90.379c3.6,2.305 7.884,3.276 13.14,2.772 5.22-.612 14.508-2.196 18-5.868 3.276-3.708 2.628-11.988 2.088-15.948-.612-4.068-2.196-6.624-5.184-7.956-8.316,7.92-14.688,14.148-19.404,18.684-4.68,4.464-7.56,7.236-8.64,8.316z" fill-rule="evenodd" stroke="#000" stroke-miterlimit="10" stroke-width=".036"/>
 <path d="m40.522,90.379c2.124-2.844 5.184-6.264 9.324-10.403 4.104-4.212 9.144-9 15.264-14.508 1.944.684 3.204,2.34 3.78,5.508 .576,3.06 1.116,9.504-.324,12.816-1.656,3.132-5.148,4.788-8.676,6.229-3.564,1.332-8.892,1.979-12.096,2.088-3.239.035-5.615-.542-7.272-1.73z" fill="#fff" fill-rule="evenodd" stroke="#000" stroke-miterlimit="10" stroke-width=".036"/>
 <path d="m115.979,55.423c-2.305.036.936,6.768 4.176,10.044 3.205,3.312 8.1,8.316 14.545,9.324 6.227.828 19.619-2.772 22.824-4.14 2.986-1.476-.145-3.24-4.141-4.176-4.104-1.044-13.068,0-19.404-1.728-6.301-1.872-15.733-9.468-18-9.324z" fill-rule="evenodd" stroke="#000" stroke-miterlimit="10" stroke-width=".036"/>
 <path d="m157.199,68.923c-2.592,1.296-5.76,2.376-9.361,3.096-3.779.72-8.387,2.161-12.455,1.404-4.068-.899-8.785-3.528-11.771-6.228-3.098-2.664-5.293-5.904-6.588-9.72 2.41,2.952 5.039,5.544 8.314,7.632 3.133,2.124 5.365,4.068 10.729,4.86 5.363.648 12.275.252 21.132-1.044z" fill="#fff" fill-rule="evenodd" stroke="#000" stroke-miterlimit="10" stroke-width=".036"/>
 <path d="m119.111,57.835c2.986,2.484 6.047,4.392 9.322,5.868 3.168,1.404 5.869,2.052 10.045,2.772 4.141.648 9.107,1.116 14.904,1.404-4.033.648-7.775,1.044-11.088,1.044-3.348-.036-5.652.216-9-1.044-3.564-1.476-9.432-5.22-11.771-6.912-2.341-1.728-3.24-2.772-2.412-3.132z" fill="#fff" fill-rule="evenodd" stroke="#000" stroke-miterlimit="10" stroke-width=".036"/>
 <path d="m89.663,98.695c-2.304,2.771-4.428,4.428-6.228,4.824-1.908.359-4.032-.396-4.824-2.412-.936-2.124-1.584-5.725 0-9.685 1.656-4.031 4.752-8.712 9.684-14.184l-.684-5.22c-7.632,3.672-12.528,7.812-15.264,12.816-2.664,4.933-1.872,12.564-.684,16.632 1.044,3.925 4.572,5.797 7.272,7.272 2.664,1.476 6.804,2.952 8.676,1.368 1.835-1.655 2.375-5.506 2.052-11.411z" fill-rule="evenodd" stroke="#000" stroke-miterlimit="10" stroke-width=".036"/>
 <path d="m87.935,103.52c.36,2.628.18,4.607-.684,5.544-.936.792-2.628,1.044-4.5.359-2.052-.756-4.752-2.304-6.588-3.815-1.764-1.548-2.988-2.664-3.816-4.86s-1.116-5.004-1.008-8.28c.216,3.744 1.116,6.805 3.096,9.324 1.836,2.412 6.048,5.185 8.316,5.544 2.231.323 3.959-1.045 5.184-3.816z" fill="#fff" fill-rule="evenodd" stroke="#000" stroke-miterlimit="10" stroke-width=".036"/>
 <path d="m87.935,101.432-.108,1.619c-.756,1.44-1.548,2.521-2.52,3.097-1.044.611-1.8.899-3.384.324-1.728-.828-4.824-2.7-6.372-4.5-1.512-1.944-2.556-4.032-2.988-6.265-.648-2.268-1.296-4.607-.54-7.02 .612-2.592 2.016-5.544 4.5-8.028 2.484-2.52 5.76-4.86 10.224-7.02l.648,3.708c-2.448,2.376-4.536,4.896-6.264,7.703-1.944,2.7-3.744,5.904-4.284,8.784-.54,2.809.432,6.696 1.548,8.46 1.08,1.656 3.276,2.124 4.932,1.98 1.619-.107 3.06-1.151 4.608-2.842z" fill="#fff" fill-rule="evenodd" stroke="#000" stroke-miterlimit="10" stroke-width=".036"/>
 <path d="m31.522 104.92c6.876 3.276 12.564 6.624 17.64 10.044 5.04 3.385 8.892 6.841 12.132 10.368l6.552-8.315c-5.436-6.156-10.8-10.656-16.236-13.5-5.508-2.916-10.8-4.177-16.308-3.78l-3.78 5.183z" fill-rule="evenodd" stroke="#000" stroke-miterlimit="10" stroke-width=".036"/>
 <path d="m32.999,104.815c2.988,1.584 5.796,2.987 8.568,4.607 2.7,1.513 4.284,2.089 7.668,4.645 3.24,2.448 7.308,5.832 12.06,10.151l1.008-1.367c-3.708-3.816-7.452-6.984-11.376-9.792-4.032-2.845-9.252-5.364-12.168-6.876-2.916-1.62-4.68-2.448-5.292-2.484-.144.361-.288.72-.468,1.116z" fill="#fff" fill-rule="evenodd" stroke="#000" stroke-miterlimit="10" stroke-width=".036"/>
 <path d="m34.115,102.439 1.908-2.017c5.148.504 9.612,1.513 13.536,3.168 3.888,1.656 7.02,4.284 9.936,6.624 2.844,2.269 5.076,4.465 6.984,6.876l-3.96,5.185c-3.312-3.96-6.876-7.164-10.692-10.008-4.032-2.916-9.36-5.221-12.384-6.769-2.988-1.548-4.716-2.304-5.328-2.268v-.791z" fill="#fff" fill-rule="evenodd" stroke="#000" stroke-miterlimit="10" stroke-width=".036"/>
 <path d="m132.934,121.591c1.189,1.044 2.988-3.743 3.313-6.983 .145-3.313.432-8.424-2.051-12.132-2.629-3.816-10.945-9.108-13.141-10.044-2.305-1.009-1.584,1.584-.18,4.176 1.26,2.52 6.371,6.804 8.387,11.052 2.017,4.139 2.412,12.671 3.672,13.931z" fill-rule="evenodd" stroke="#000" stroke-miterlimit="10" stroke-width=".036"/>
 <path d="m120.334,93.439c1.98.684 3.889,1.872 6.121,3.42 2.16,1.512 5.039,3.384 6.695,5.904 1.477,2.483 2.305,6.191 2.34,9.18 .037,2.844-.611,5.544-1.943,8.1 .359-2.735.504-5.363.035-8.027-.504-2.772-.395-4.824-2.592-7.956-2.267-3.133-5.724-6.624-10.656-10.621z" fill="#fff" fill-rule="evenodd" stroke="#000" stroke-miterlimit="10" stroke-width=".036"/>
 <path d="m132.719,118.783c-.217-2.771-.541-5.4-1.369-7.74-.826-2.447-1.764-4.14-3.348-6.588-1.656-2.592-3.744-5.292-6.408-8.496 2.305,1.8 4.213,3.528 5.869,5.328 1.512,1.764 2.809,2.664 3.744,5.22 .863,2.448 1.764,7.381 2.016,9.505 .252,2.088.035,2.915-.504,2.771z" fill="#fff" fill-rule="evenodd" stroke="#000" stroke-miterlimit="10" stroke-width=".036"/>
 <path d="m138.3 88.363c0.18 2.808 1.152 6.768 3.889 10.08 2.699 3.06 6.768 7.128 12.059 8.46 5.184 1.224 15.408 1.548 18.865-0.972 3.348-2.809 3.311-10.152 1.008-14.652-2.557-4.572-9.756-10.152-15.336-11.736-5.652-1.476-14.438 1.404-17.893 2.952-3.385 1.332-2.952 3.24-2.592 5.868z" fill="#fff" fill-rule="evenodd" stroke="#000" stroke-miterlimit="10" stroke-width=".036"/>
 <path d="m106.15,33.499c.18,2.376 1.044,6.3 3.564,9.144 2.485,2.844 6.12,6.372 10.909,7.668 4.824,1.152 13.859,1.368 17.1-.9 2.916-2.484 3.023-9.216.9-13.248-2.197-4.032-8.893-9.324-13.861-10.62-5.039-1.368-13.176,1.26-16.235,2.628-3.132,1.224-2.629,2.952-2.377,5.328z" fill-rule="evenodd" stroke="#000" stroke-miterlimit="10" stroke-width=".036"/>
 <path d="m107.159,33.535c.108,2.304 1.08,5.868 3.347,8.604 2.305,2.664 5.725,6.084 10.26,7.2 4.32,1.008 13.248,1.332 16.094-.828 2.807-2.304 2.807-8.784.828-12.492-2.197-3.816-8.209-8.712-13.033-9.972-4.824-1.188-12.313,1.08-15.264,2.484-2.989,1.224-2.484,2.664-2.232,5.004z" fill="#fff" fill-rule="evenodd" stroke="#000" stroke-miterlimit="10" stroke-width=".036"/>
 <path d="m125.158,31.735c-6.156,2.52-11.557,4.176-16.632,5.508-5.112,1.224-9.612,1.764-13.644,1.764l1.512,9c7.02-.036 13.032-.72 18.035-2.592 5.004-1.836 8.857-4.536 11.846-8.244-.361-1.8-.72-3.6-1.117-5.436z" fill-rule="evenodd" stroke="#000" stroke-miterlimit="10" stroke-width=".036"/>
 <path d="m124.367,32.743c-2.773.972-5.365,2.052-7.92,2.844-2.629.792-3.924,1.584-7.381,2.232-3.528.648-7.92,1.26-13.464,1.836l.252,1.44c4.536-.18 8.784-.72 12.888-1.62 3.996-1.08 8.675-2.772 11.412-3.816 2.664-1.008 4.213-1.656 4.645-1.944-.145-.324-.289-.648-.432-.972z" fill="#fff" fill-rule="evenodd" stroke="#000" stroke-miterlimit="10" stroke-width=".036"/>
 <path d="m125.23,34.867 .18,2.376c-3.348,3.024-6.48,5.256-9.828,6.84-3.42,1.548-6.948,1.908-10.007,2.484-3.096.54-5.904.576-8.424.504l-1.044-5.508c4.392.18 8.496-.216 12.6-1.044 4.032-.936 8.749-3.024 11.52-4.032 2.629-.972 4.176-1.8 4.5-2.088 .144.144.324.288.503.468z" fill="#fff" fill-rule="evenodd" stroke="#000" stroke-miterlimit="10" stroke-width=".036"/>
 <path d="m89.734,62.371c-1.764.972-3.312,1.152-5.04.54-1.728-.72-5.184-1.944-5.076-4.248-.072-2.34 1.476-8.496 5.328-9.576 3.852-1.224 14.508.72 17.82,2.916 3.168,2.16 2.772,8.496 1.584,10.116-1.224,1.548-4.14,1.224-8.748-.828-.828,1.08-.972,2.196-.288,3.744 .612,1.512 1.944,3.06 3.996,5.04-1.008,1.764-2.34,2.916-4.536,3.456-2.16.504-4.86.288-8.244-.504 .18-2.196.54-4.104 1.08-5.868 .469-1.836 1.224-3.384 2.124-4.788z" fill-rule="evenodd" stroke="#000" stroke-miterlimit="10" stroke-width=".036"/>
 <path d="m98.411,70.183c-1.548.9-2.988,1.332-4.86,1.44-1.8.036-3.852-.252-6.012-1.008l-.36,2.088c1.404.359 2.628.54 3.96.685 1.26.035 2.484.071 3.672-.181 1.008-.36 2.304-1.044 2.916-1.512 .54-.54.863-1.044.684-1.512z" fill="#fff" fill-rule="evenodd" stroke="#000" stroke-miterlimit="10" stroke-width=".036"/>
 <path d="m80.482,57.115c-.36.864-.288,1.692-.18,2.34 .072.612.576.9 1.116,1.44 .576.396 1.296.864 2.304,1.26 .9.324 1.944.648 3.132.684 .972-.108 2.016-.468 2.988-1.08l.18-.792c-1.368.432-2.664.684-3.744.756-1.152.072-2.088-.252-2.952-.576-.9-.504-1.656-1.152-2.268-2.088-.18-.648-.359-1.296-.576-1.944z" fill="#fff" fill-rule="evenodd" stroke="#000" stroke-miterlimit="10" stroke-width=".036"/>
 <path d="m95.818,60.895c1.188.54 2.232,1.08 3.276,1.332 .936.216 2.088.432 2.916.36 .828-.18 1.368-.504 1.908-1.116-1.692.216-3.096.036-4.356-.144-1.332-.216-2.232-.828-3.096-1.44-.216.324-.431.648-.648,1.008z" fill="#fff" fill-rule="evenodd" stroke="#000" stroke-miterlimit="10" stroke-width=".036"/>
 <path d="m98.086,69.931c-1.08-1.116-1.98-2.16-2.556-3.276-.72-1.152-1.332-2.34-1.152-3.564 .072-1.26.9-2.556 2.088-3.888 .396.54 1.188,1.044 2.52,1.368s3.024.468 5.364.576c.36-.9.576-1.692.504-2.916-.18-1.296.18-2.772-1.008-4.032-1.26-1.332-3.168-2.52-6.12-3.276-3.06-.756-8.568-1.872-11.376-1.26-2.844.54-4.068,2.844-4.932,4.392-.9,1.404-.396,2.916 0,4.104 .324,1.116 1.044,1.872 2.16,2.412 1.044.432 2.664.432 4.032.432 1.296-.144 2.448-.432 3.6-1.008-.216.288-.684,1.116-1.26,2.916-.576,1.692-1.404,4.068-2.34,7.272 1.908.648 3.744,1.08 5.508,1.008 1.729-.108 3.384-.432 4.968-1.26z" fill="#fff" fill-rule="evenodd" stroke="#000" stroke-miterlimit="10" stroke-width=".036"/>
 <path d="m103.522,116.479c.18,2.34-.54,4.032-2.016,5.616-1.656,1.403-4.68,4.355-7.128,3.168-2.52-1.332-8.172-5.868-7.38-10.549 .864-4.752 8.136-15.084 12.24-17.388 3.888-2.304 10.476,1.368 11.556,3.528 1.043,2.124-.793,4.896-5.364,8.855 .648,1.44 1.908,2.053 3.78,2.232 1.909.072 4.284-.468 7.417-1.62 1.404,1.908 1.943,3.96 1.332,6.552-.648,2.521-2.197,5.292-4.789,8.46-2.23-1.332-4.067-2.664-5.651-4.14-1.621-1.546-2.953-2.986-3.997-4.714z" fill-rule="evenodd" stroke="#000" stroke-miterlimit="10" stroke-width=".036"/>
 <path d="m116.266,111.295c.182,2.017-.143,3.853-.971,5.904-.9,1.908-2.232,3.852-4.141,5.832l2.016,1.476c1.08-1.26 2.053-2.592 2.773-3.852 .646-1.476 1.439-2.628 1.691-3.996 .252-1.404.072-2.916-.107-3.852-.216-.9-.685-1.404-1.261-1.512z" fill="#fff" fill-rule="evenodd" stroke="#000" stroke-miterlimit="10" stroke-width=".036"/>
 <path d="m93.19,123.571c.828.756 1.62,1.224 2.376,1.404 .684.107 1.296-.181 2.124-.469 .72-.432 1.656-.972 2.52-1.764 .828-.864 1.8-1.908 2.34-2.988 .504-1.151.504-2.376.396-3.672l-.756-.647c-.216,1.691-.54,3.096-1.116,4.355-.576,1.188-1.296,2.088-2.16,2.844-.936.685-2.052,1.08-3.348,1.332-.792-.107-1.584-.251-2.376-.395z" fill="#fff" fill-rule="evenodd" stroke="#000" stroke-miterlimit="10" stroke-width=".036"/>
 <path d="m105.106,109.279c1.296-.972 2.196-1.908 3.096-2.808 .864-.973 1.44-1.98 1.872-2.881 .217-.936.145-1.8-.215-2.592-.72,1.8-1.512,3.313-2.376,4.536-.972,1.188-2.016,1.98-3.132,2.521 .252.396.503.793.755,1.224z" fill="#fff" fill-rule="evenodd" stroke="#000" stroke-miterlimit="10" stroke-width=".036"/>
 <path d="m115.834,111.512c-1.691.647-3.348.899-4.824,1.044-1.619.035-3.059.107-4.319-.612-1.188-.828-2.34-2.196-3.06-4.248 .792-.072 1.764-.72 2.772-1.944 .972-1.224 2.088-3.023 3.348-5.399-.648-.9-1.584-1.477-2.808-2.017-1.296-.576-2.952-1.655-4.824-1.008-2.016.54-4.32,2.088-6.624,4.788-2.412,2.7-6.336,8.172-7.2,11.412-.864,3.168.972,5.796 2.16,7.488 1.152,1.548 2.88,1.871 4.356,2.088 1.296.144 2.556-.145 3.636-1.008 .936-.937 2.016-2.664 2.556-4.068 .576-1.404.792-2.844.792-4.32 .144.324.9,1.26 2.412,2.809 1.512,1.476 3.636,3.6 6.516,6.228 1.691-1.728 2.988-3.456 3.889-5.328 .863-1.945 1.222-3.782 1.222-5.905z" fill="#fff" fill-rule="evenodd" stroke="#000" stroke-miterlimit="10" stroke-width=".036"/>
 <path d="m177.25,99.596c2.305.792 3.961,2.016 4.824,4.212 .828,2.088 2.592,6.228.432,8.243-2.303,1.944-8.928,5.832-13.355,3.349-4.428-2.628-11.771-14.04-12.6-18.828-.756-4.932 5.291-9.937 7.883-10.152 2.412-.18 4.682,2.557 6.805,8.748 1.584-.18 2.844-1.116 3.637-2.952 .828-1.943 1.188-4.428 1.223-7.991 2.449-.757 4.752-.36 7.057,1.188 2.34,1.512 4.355,4.176 6.588,7.992-2.16,1.728-4.211,2.952-6.299,4.068-2.127,1.078-4.142,1.654-6.195,2.123z" fill-rule="evenodd" stroke="#000" stroke-miterlimit="10" stroke-width=".036"/>
 <path d="m176.963,84.943c2.088.504 3.779,1.584 5.471,3.24 1.621,1.548 2.988,3.672 4.248,6.372l2.232-1.44c-.863-1.656-1.799-3.024-2.807-4.248-1.01-1.26-2.16-2.52-3.313-3.204-1.26-.792-2.916-1.296-3.852-1.368-1.008-.144-1.62.072-1.979.648z" fill="#fff" fill-rule="evenodd" stroke="#000" stroke-miterlimit="10" stroke-width=".036"/>
 <path d="m180.346,112.627c1.01-.576 1.908-1.188 2.305-1.836 .359-.72.432-1.439.359-2.304-.107-.972-.322-2.124-.791-3.168-.432-1.188-1.26-2.628-2.088-3.492-.936-.9-2.16-1.548-3.527-1.8l-.9.54c1.584.792 2.879,1.764 3.887,2.771 .938,1.009 1.656,1.944 2.018,3.204 .252,1.152.395,2.448.035,3.889-.433.72-.865,1.44-1.298,2.196z" fill="#fff" fill-rule="evenodd" stroke="#000" stroke-miterlimit="10" stroke-width=".036"/>
 <path d="m170.662,95.312c-.467-1.584-1.008-3.024-1.619-4.177-.613-1.296-1.369-2.34-2.125-2.987-.791-.648-1.727-.9-2.664-.756 1.512,1.332 2.809,2.699 3.602,4.104 .756,1.332 1.295,2.7 1.332,4.104 .466-.073.97-.181 1.474-.288z" fill="#fff" fill-rule="evenodd" stroke="#000" stroke-miterlimit="10" stroke-width=".036"/>
 <path d="m176.998,85.483c-.072,1.979-.287,3.528-.791,5.184-.576,1.513-1.008,3.061-2.268,4.068-1.297.828-3.098,1.439-5.4,1.439 .215-.899-.072-2.016-.865-3.491-.863-1.513-2.23-3.313-4.104-5.4-1.152.216-2.088.936-3.096,2.016-1.115,1.009-2.664,2.196-2.844,4.393-.18,2.231.432,4.896 2.232,8.424 1.871,3.348 5.615,9.324 8.604,11.52 2.844,2.017 6.156,1.152 8.279.721 1.945-.54 3.025-2.269 3.781-3.528 .684-1.368.756-2.664.359-4.032-.504-1.439-1.943-2.987-3.061-4.067-1.152-1.152-2.592-1.872-4.031-2.448 .359-.036 1.656-.432 3.744-1.332 2.051-1.008 4.895-2.232 8.676-4.104-1.008-2.411-2.268-4.319-3.781-5.867-1.545-1.624-3.309-2.74-5.434-3.496z" fill="#fff" fill-rule="evenodd" stroke="#000" stroke-miterlimit="10" stroke-width=".036"/>
</svg>
